<svg width="1588" height="1124" viewBox="0 0 1588 1124" fill="none" xmlns="http://www.w3.org/2000/svg">
<path fill-rule="evenodd" clip-rule="evenodd" d="M1002.24 453.571C999.903 454.634 996.413 456.704 994.489 458.171C992.565 459.639 989.37 463.048 987.388 465.748C985.406 468.448 982.961 472.823 981.955 475.471C980.949 478.12 971.954 508.752 961.967 543.545C943.809 606.803 943.809 606.803 944.17 615.449C944.452 622.205 945.116 625.349 947.204 629.831C948.674 632.985 952.042 637.723 954.688 640.358C957.335 642.993 962.022 646.338 965.104 647.79C968.186 649.242 973.105 651.143 976.035 652.013C980.131 653.229 986.063 653.595 1001.68 653.595C1012.86 653.595 1022 653.79 1022 654.028C1022 654.265 1017.23 664.728 1011.41 677.278C1005.58 689.827 999.007 703.92 996.799 708.595C994.591 713.27 992.163 719.345 991.404 722.095C990.645 724.845 990.023 729.57 990.023 732.595C990.022 735.62 990.685 740.28 991.495 742.951C992.305 745.622 993.946 749.447 995.141 751.451C996.336 753.455 998.706 756.589 1000.41 758.415C1002.11 760.241 1005.98 763.237 1009 765.074C1012.03 766.91 1016.98 769.114 1020 769.972C1023.03 770.829 1028.65 771.597 1032.5 771.677C1036.35 771.757 1040.85 771.49 1042.5 771.083C1044.15 770.676 1047.81 769.047 1050.63 767.463C1053.46 765.878 1056.32 763.91 1057.01 763.089C1058.08 761.79 1057.4 761.595 1051.73 761.595C1048.05 761.595 1042.44 760.735 1038.86 759.62C1035.36 758.534 1030.18 756.077 1027.35 754.161C1024.52 752.245 1020.59 748.711 1018.62 746.307C1016.65 743.903 1014.02 739.722 1012.77 737.015C1010.89 732.929 1010.5 730.399 1010.52 722.095C1010.53 712.165 1010.57 712.018 1015.67 701.095C1018.5 695.045 1025.58 679.81 1031.41 667.239C1037.23 654.668 1042 644.236 1042 644.058C1042 643.879 1031.99 643.576 1019.75 643.385C998.246 643.049 997.264 642.945 990.473 640.283C986.609 638.768 981.227 635.851 978.514 633.801C975.801 631.75 972.336 628.278 970.814 626.084C969.292 623.89 967.093 619.62 965.927 616.595C964.497 612.885 963.803 608.802 963.793 604.049C963.78 598.03 965.466 591.1 975.353 556.549C981.719 534.299 990.264 504.529 994.341 490.393C998.691 475.31 1002.84 462.916 1004.38 460.393C1005.83 458.029 1007.74 455.083 1008.63 453.845C1010.14 451.738 1010.13 451.596 1008.37 451.617C1007.34 451.629 1004.59 452.508 1002.24 453.571Z" fill="#41AD49"/>
<path fill-rule="evenodd" clip-rule="evenodd" d="M1027.73 441.617C1025.66 442.141 1022.13 443.507 1019.89 444.651C1017.64 445.796 1013.89 448.652 1011.54 450.998C1009.2 453.345 1006.04 457.385 1004.52 459.978C1002.91 462.725 998.661 475.413 994.341 490.393C990.264 504.529 981.719 534.299 975.353 556.549C965.466 591.1 963.78 598.03 963.793 604.049C963.803 608.802 964.497 612.885 965.927 616.595C967.093 619.62 969.292 623.89 970.814 626.084C972.336 628.278 975.801 631.75 978.514 633.801C981.227 635.851 986.609 638.768 990.473 640.283C997.264 642.945 998.246 643.049 1019.75 643.385C1031.99 643.576 1042 643.879 1042 644.058C1042 644.236 1037.23 654.668 1031.41 667.239C1025.58 679.81 1018.5 695.045 1015.67 701.095C1010.57 712.018 1010.53 712.165 1010.52 722.095C1010.5 730.399 1010.88 732.929 1012.77 737.015C1014.02 739.722 1016.65 743.903 1018.62 746.307C1020.59 748.711 1024.52 752.245 1027.35 754.161C1030.18 756.077 1035.32 758.522 1038.77 759.594C1042.64 760.796 1048.31 761.598 1053.58 761.688C1061.35 761.82 1062.68 761.549 1068.31 758.663C1071.72 756.919 1075.4 754.728 1076.51 753.794C1077.61 752.86 1080.15 750.07 1082.15 747.595C1084.14 745.12 1089.02 736.12 1092.99 727.595C1096.96 719.07 1101.46 709.395 1102.99 706.095C1104.51 702.795 1108.79 693.57 1112.5 685.595C1116.2 677.62 1120.94 667.495 1123.03 663.095C1125.12 658.695 1130.68 646.77 1135.38 636.595C1141.82 622.674 1144.2 616.346 1145.02 611.029C1145.79 605.956 1145.79 602.006 1145.01 597.029C1144.42 593.215 1142.71 587.62 1141.22 584.595C1139.73 581.57 1136.21 576.81 1133.39 574.017C1130.57 571.224 1126.27 568 1123.83 566.854C1121.39 565.707 1116.75 564.28 1113.51 563.682C1110.28 563.084 1071.88 562.605 1058.32 562.605C1059.54 558.067 1065.51 536.645 1068.86 525.095C1072.21 513.545 1075.86 501.177 1076.96 497.609C1078.06 494.042 1079.25 487.956 1079.6 484.084C1079.98 479.888 1079.75 474.723 1079.04 471.297C1078.28 467.638 1076.33 463.292 1073.67 459.337C1071.15 455.578 1067.37 451.645 1064.1 449.377C1061.14 447.316 1056.2 444.693 1053.15 443.549C1049.85 442.314 1044.32 441.305 1039.54 441.066C1035.12 440.844 1029.81 441.092 1027.73 441.617Z" fill="#FBF304"/>
<path fill-rule="evenodd" clip-rule="evenodd" d="M235.355 343.047C230.405 343.837 222.907 345.382 218.694 346.48C214.48 347.578 206.512 350.48 200.986 352.93C195.461 355.379 187.685 359.49 183.706 362.064C179.727 364.638 173.745 369.056 170.413 371.881C167.081 374.706 160.833 380.847 156.528 385.527C152.223 390.207 146.49 397.408 143.788 401.53C141.086 405.651 137.979 410.826 136.885 413.03C135.79 415.233 133.514 420.31 131.827 424.312C130.14 428.314 127.911 434.909 126.873 438.967C125.835 443.026 124.421 449.652 123.731 453.691C122.781 459.253 122.392 493.28 122.128 593.874C121.83 707.284 121.994 727.957 123.247 735.222C124.055 739.902 125.935 746.222 127.424 749.267C128.913 752.311 132.882 757.605 136.243 761.031C139.813 764.669 144.851 768.511 148.355 770.267C151.655 771.921 157.317 773.783 160.937 774.405C164.557 775.027 170.182 775.528 173.437 775.519C176.692 775.509 182.406 774.855 186.135 774.065C189.865 773.274 195.265 771.38 198.135 769.854C201.006 768.329 206.317 764.112 209.938 760.485C215.085 755.327 217.267 752.159 219.938 745.962C223.355 738.036 223.557 693.786 223.855 649.536C245.244 649.536 279.714 649.203 284.39 647.985C287.666 647.132 293.122 644.881 296.515 642.984C299.908 641.086 304.787 637.397 307.357 634.785C310.069 632.029 313.666 626.679 315.928 622.036C318.567 616.619 320.192 611.533 320.962 606.286C321.812 600.49 321.81 596.582 320.956 590.786C320.247 585.972 318.512 580.284 316.376 575.77C314.378 571.547 310.74 566.18 307.687 562.952C304.799 559.898 299.716 555.878 296.391 554.019C293.066 552.16 287.666 549.94 284.39 549.087C279.712 547.869 245.336 547.536 223.855 547.536C224.148 510.421 224.449 469.812 226.531 464.731C227.727 461.812 230.276 457.508 232.196 455.165C234.177 452.747 238.427 449.443 242.021 447.528C247.337 444.694 249.64 444.087 256.355 443.747C262.893 443.416 265.447 443.754 270.33 445.595C274.151 447.036 278.169 449.612 281.477 452.74C284.572 455.667 287.555 459.722 288.902 462.834C290.597 466.748 291.338 471.008 291.895 480.036C292.443 488.92 293.303 493.935 295.206 499.349C296.62 503.371 299.334 508.771 301.236 511.349C303.138 513.927 306.193 517.454 308.025 519.187C309.856 520.921 313.605 523.752 316.355 525.479C319.105 527.206 324.43 529.556 328.188 530.7C333.904 532.441 336.88 532.71 346.39 532.346C357.326 531.928 358.078 531.752 366.19 527.733C372.513 524.6 376.035 522.029 380.265 517.459C383.369 514.107 387.026 509.158 388.393 506.461C389.76 503.764 391.548 498.373 392.367 494.481C393.185 490.589 393.855 482.958 393.855 477.522C393.855 472.086 393.162 462.328 392.315 455.837C391.468 449.347 389.844 440.896 388.705 437.057C387.566 433.219 384.693 425.701 382.321 420.35C379.948 415 375.972 407.476 373.485 403.631C370.997 399.785 366.954 394.174 364.499 391.16C362.044 388.146 357.633 383.259 354.695 380.3C351.758 377.341 347.105 373.108 344.355 370.893C341.605 368.678 336.523 364.962 333.062 362.635C329.602 360.308 322.852 356.573 318.062 354.336C313.273 352.099 306.906 349.424 303.913 348.39C300.921 347.357 293.946 345.565 288.413 344.409C281.138 342.887 273.651 342.209 261.355 341.957C249.821 341.721 241.461 342.071 235.355 343.047ZM1228.85 343.425C1225.28 344.398 1220.78 346.004 1218.85 346.993C1216.93 347.983 1212.96 350.818 1210.04 353.293C1207.12 355.768 1203.18 360.098 1201.27 362.915C1199.36 365.731 1196.8 370.961 1195.58 374.536C1193.35 381.036 1193.35 381.036 1193.09 554.522C1192.85 705.487 1193.01 729.043 1194.32 735.98C1195.15 740.364 1197.02 746.392 1198.48 749.376C1199.94 752.36 1203.88 757.605 1207.24 761.031C1210.81 764.669 1215.85 768.511 1219.35 770.267C1222.65 771.921 1228.32 773.783 1231.94 774.405C1235.56 775.027 1241.18 775.528 1244.44 775.519C1247.69 775.509 1253.41 774.855 1257.14 774.065C1260.87 773.274 1266.27 771.374 1269.14 769.841C1272.01 768.308 1277.11 764.341 1280.47 761.026C1283.83 757.71 1287.49 753.206 1288.6 751.017C1289.71 748.827 1291.46 744.786 1292.49 742.036C1294.23 737.365 1294.39 732.069 1294.85 661.536C1295.35 586.036 1295.35 586.036 1297.99 580.536C1299.43 577.511 1302.81 572.913 1305.49 570.317C1308.82 567.094 1312.23 564.955 1316.26 563.567C1319.81 562.347 1324.74 561.536 1328.61 561.536C1332.15 561.536 1337.58 562.271 1340.67 563.169C1344.91 564.403 1347.67 566.128 1351.97 570.228C1355.39 573.488 1358.59 577.727 1359.98 580.845C1362.3 586.036 1362.3 586.036 1363.09 660.536C1363.88 735.036 1363.88 735.036 1366.39 743.262C1368.21 749.202 1370.24 753.225 1373.71 757.744C1376.38 761.22 1381.27 765.889 1384.72 768.252C1388.14 770.59 1393.5 773.298 1396.65 774.27C1400.76 775.543 1405.71 776.036 1414.35 776.036C1423 776.036 1427.95 775.543 1432.06 774.27C1435.2 773.298 1440.58 770.584 1444.01 768.237C1447.74 765.681 1452.38 761.177 1455.57 757.003C1458.53 753.142 1461.58 747.807 1462.42 745.036C1463.25 742.286 1464.4 736.642 1464.96 732.493C1465.63 727.648 1465.85 698.857 1465.6 651.993C1465.22 582.771 1465.09 578.447 1463.07 567.536C1461.9 561.211 1460.08 553.561 1459.02 550.536C1457.97 547.511 1455.62 541.661 1453.8 537.536C1451.98 533.411 1448.11 526.316 1445.19 521.77C1442.27 517.224 1437.47 510.659 1434.52 507.182C1431.57 503.705 1426.21 498.122 1422.61 494.777C1419.02 491.431 1413.3 486.65 1409.91 484.152C1406.51 481.654 1400.5 477.83 1396.55 475.654C1392.59 473.478 1384.63 469.911 1378.85 467.728C1373.08 465.545 1364.75 462.925 1360.35 461.904C1353.81 460.385 1348.27 460.052 1329.85 460.066C1312.61 460.08 1305.9 460.455 1301.1 461.676C1294.85 463.268 1294.85 463.268 1294.85 424.112C1294.85 392.012 1294.58 383.882 1293.31 378.996C1292.46 375.718 1290.66 370.621 1289.31 367.67C1287.81 364.386 1284.39 359.877 1280.48 356.052C1276.98 352.614 1271.69 348.657 1268.73 347.259C1265.77 345.861 1260.59 344.002 1257.21 343.127C1253.83 342.252 1247.53 341.563 1243.21 341.596C1238.89 341.629 1232.43 342.452 1228.85 343.425ZM473.914 344.092C470.371 344.86 465.089 346.654 462.176 348.08C459.264 349.505 454.153 353.398 450.82 356.731C447.486 360.065 443.695 364.891 442.395 367.457C441.095 370.022 439.204 374.802 438.193 378.079C436.439 383.765 436.355 391.998 436.355 559.036C436.355 734.036 436.355 734.036 438.703 741.514C439.995 745.628 442.626 751.366 444.551 754.266C446.476 757.166 449.985 761.241 452.349 763.322C454.713 765.402 458.93 768.347 461.72 769.866C464.511 771.385 469.845 773.274 473.575 774.065C477.304 774.855 483.28 775.501 486.855 775.501C490.43 775.501 496.406 774.855 500.135 774.065C503.865 773.274 509.265 771.38 512.135 769.854C515.006 768.329 520.311 764.12 523.923 760.5C527.535 756.881 531.456 751.921 532.635 749.478C533.814 747.035 535.477 742.301 536.331 738.958C537.709 733.559 537.853 713.184 537.619 556.458C537.355 380.036 537.355 380.036 534.731 373.292C533.288 369.583 530.193 364.067 527.853 361.034C525.391 357.843 520.809 353.712 516.977 351.23C513.335 348.871 508.78 346.428 506.855 345.801C504.93 345.175 500.685 344.183 497.421 343.599C494.158 343.014 488.983 342.572 485.921 342.615C482.86 342.659 477.456 343.324 473.914 344.092ZM715.855 460.144C713.93 460.374 708.607 461.274 704.026 462.144C699.446 463.014 690.515 465.466 684.181 467.594C677.848 469.722 668.095 473.886 662.51 476.847C656.925 479.809 649.43 484.284 645.855 486.793C642.28 489.302 636.88 493.551 633.855 496.235C630.83 498.919 624.93 504.697 620.744 509.075C616.558 513.454 610.905 520.186 608.182 524.036C605.459 527.886 601.377 534.186 599.11 538.036C596.843 541.886 593.188 549.536 590.988 555.036C588.788 560.536 586.098 568.411 585.01 572.536C583.923 576.661 582.324 584.311 581.459 589.536C580.593 594.761 579.601 603.986 579.254 610.036C578.896 616.276 579.125 625.977 579.784 632.455C580.422 638.736 582.024 649.184 583.343 655.674C584.662 662.165 587.648 672.261 589.978 678.111C592.308 683.96 596.426 692.637 599.13 697.391C601.834 702.146 607.124 710.086 610.885 715.036C614.647 719.986 621.467 727.714 626.04 732.21C630.613 736.705 638.593 743.546 643.772 747.412C648.952 751.277 658.177 756.918 664.272 759.948C670.368 762.977 680.08 767.076 685.855 769.056C692.578 771.361 701.211 773.348 709.855 774.581C717.28 775.639 728.539 776.512 734.875 776.52C743.421 776.532 748.288 776.011 753.727 774.504C758.025 773.313 763.444 770.852 766.827 768.555C770 766.401 774.513 762.477 776.856 759.837C779.199 757.196 782.362 752.283 783.884 748.919C785.407 745.555 787.204 740.334 787.879 737.318C788.612 734.043 788.914 728.048 788.628 722.435C788.27 715.381 787.445 711.185 785.323 705.615C783.114 699.816 781.099 696.712 776.105 691.418C772.59 687.692 767.833 683.545 765.535 682.201C763.236 680.858 758.304 678.82 754.576 677.671C750.848 676.523 742.523 675.135 736.076 674.587C729.629 674.04 722.143 672.903 719.439 672.062C716.736 671.22 712.686 669.452 710.439 668.132C708.193 666.811 704.7 664.413 702.678 662.801C700.656 661.19 696.906 657.433 694.345 654.454C691.784 651.474 688.872 647.458 687.875 645.529C686.878 643.601 685.122 639.156 683.972 635.653C682.822 632.15 681.607 625.853 681.273 621.66C680.858 616.446 681.158 611.72 682.223 606.708C683.079 602.677 684.942 596.842 686.362 593.74C687.782 590.638 690.711 585.759 692.872 582.898C695.032 580.037 699.399 575.699 702.577 573.258C705.755 570.817 710.253 567.854 712.574 566.673C714.894 565.493 719.619 563.861 723.074 563.047C726.528 562.232 733.18 561.566 737.855 561.566C742.53 561.566 749.182 562.232 752.636 563.047C756.091 563.861 760.667 565.42 762.804 566.51C764.942 567.601 768.711 569.856 771.18 571.523C773.649 573.189 777.864 576.953 780.546 579.888C783.228 582.823 787.098 588.557 789.146 592.63C791.194 596.703 793.317 602.46 793.863 605.422C794.448 608.599 794.855 635.291 794.855 670.489C794.855 708.905 795.24 732.283 795.935 736.102C796.53 739.366 798.429 744.961 800.156 748.536C802.077 752.512 805.651 757.415 809.36 761.163C812.83 764.669 818.036 768.608 821.534 770.374C824.894 772.07 830.504 773.922 834 774.49C837.495 775.057 843.055 775.516 846.355 775.511C849.655 775.506 855.406 774.855 859.135 774.065C862.865 773.274 868.235 771.37 871.07 769.832C873.904 768.294 878.622 764.847 881.554 762.172C884.486 759.497 888.495 754.428 890.464 750.907C892.433 747.386 894.671 742.15 895.438 739.271C896.562 735.048 896.832 721.279 896.837 668.036C896.842 614.569 896.559 600.137 895.348 592.036C894.526 586.536 892.449 577.086 890.732 571.036C889.015 564.986 885.186 554.909 882.223 548.643C879.26 542.376 874.506 533.826 871.659 529.643C868.812 525.459 863.593 518.539 860.061 514.265C856.53 509.991 849.976 503.236 845.498 499.255C841.019 495.274 833.755 489.488 829.355 486.399C824.955 483.309 817.08 478.637 811.855 476.015C806.63 473.394 797.855 469.722 792.355 467.856C786.855 465.99 778.305 463.529 773.355 462.386C765.961 460.679 760.341 460.256 741.855 460.017C729.48 459.856 717.78 459.914 715.855 460.144ZM983.584 462.957C980.409 464.262 975.797 466.982 973.333 469C970.87 471.019 967.781 474.103 966.469 475.853C965.157 477.604 963.186 480.836 962.088 483.036C960.991 485.236 959.129 490.636 957.951 495.036C956.773 499.436 954.039 509.111 951.876 516.536C949.713 523.961 945.92 537.011 943.447 545.536C940.974 554.061 938.447 563.061 937.832 565.536C937.216 568.011 935.608 573.585 934.257 577.922C932.907 582.259 929.741 593.284 927.223 602.422C923.246 616.855 922.703 619.97 923.091 626.147C923.413 631.289 924.369 635.029 926.541 639.647C928.401 643.602 931.604 648.04 934.95 651.298C938.992 655.232 942.282 657.305 947.996 659.518C952.199 661.146 957.599 662.929 959.996 663.482C962.394 664.035 972.567 664.498 982.605 664.512C992.643 664.525 1000.85 664.725 1000.85 664.956C1000.85 665.187 998.447 670.474 995.504 676.706C992.562 682.937 989.124 690.286 987.865 693.036C986.606 695.786 983.793 701.861 981.614 706.536C979.434 711.211 976.129 718.467 974.269 722.661C972.409 726.855 970.38 732.652 969.76 735.543C969.14 738.435 968.928 743.029 969.289 745.753C969.651 748.477 970.832 753.029 971.915 755.871C972.998 758.712 975.474 763.197 977.417 765.839C979.361 768.48 983.723 772.434 987.112 774.623C990.5 776.813 996.384 779.55 1000.19 780.706C1005.66 782.369 1008.66 782.688 1014.58 782.241C1019.68 781.855 1023.68 780.867 1027.2 779.128C1030.04 777.727 1033.7 775.461 1035.35 774.094C1038.35 771.608 1038.35 771.608 1031.79 771.572C1028.17 771.552 1022.77 770.817 1019.79 769.938C1016.8 769.059 1011.88 766.84 1008.85 765.008C1005.83 763.175 1001.96 760.182 1000.26 758.356C998.561 756.53 996.191 753.396 994.996 751.392C993.801 749.388 992.16 745.563 991.35 742.892C990.54 740.221 989.877 735.561 989.878 732.536C989.878 729.511 990.5 724.786 991.259 722.036C992.018 719.286 994.446 713.211 996.654 708.536C998.862 703.861 1005.43 689.768 1011.26 677.219C1017.09 664.669 1021.85 654.206 1021.85 653.969C1021.85 653.731 1012.71 653.536 1001.54 653.536C985.918 653.536 979.986 653.17 975.89 651.954C972.96 651.084 968.041 649.183 964.959 647.731C961.877 646.279 957.19 642.934 954.543 640.299C951.897 637.664 948.529 632.926 947.059 629.772C944.971 625.29 944.307 622.146 944.025 615.39C943.664 606.744 943.664 606.744 961.822 543.486C971.809 508.693 980.804 478.061 981.81 475.412C982.816 472.764 985.301 468.334 987.332 465.567C989.364 462.8 990.65 460.547 990.19 460.56C989.731 460.573 986.758 461.651 983.584 462.957Z" fill="#040404"/>
</svg>
